<svg width="58" height="56" viewBox="0 0 58 56" fill="none" xmlns="http://www.w3.org/2000/svg">
<rect width="58" height="56" rx="16" fill="#E4FFEF"/>
<path d="M35.5178 46.9618C34.7778 46.9618 34.0878 46.7618 33.4478 46.3618C32.8278 45.9818 32.2478 45.4618 31.7078 44.8018C31.1878 44.1618 30.6878 43.4618 30.2078 42.7018C29.7278 41.9218 29.2478 41.1518 28.7678 40.3918C28.2878 39.6118 27.8078 38.9018 27.3278 38.2618C26.8478 37.6018 26.3378 37.0818 25.7978 36.7018C25.2578 36.3018 24.6578 36.1018 23.9978 36.1018C23.6378 36.1018 23.3178 36.1818 23.0378 36.3418C22.7778 36.4818 22.5778 36.6918 22.4378 36.9718C22.2978 37.2318 22.2278 37.5718 22.2278 37.9918C22.2278 38.6118 22.4378 39.1718 22.8578 39.6718C23.2778 40.1718 23.8078 40.5618 24.4478 40.8418C25.1078 41.1218 25.7978 41.2618 26.5178 41.2618C27.7578 41.2618 28.9378 40.9918 30.0578 40.4518C31.1978 39.9118 32.2578 39.1718 33.2378 38.2318C34.2178 37.2918 35.0978 36.2118 35.8778 34.9918C36.6778 33.7518 37.3578 32.4418 37.9178 31.0618C38.4778 29.6818 38.9078 28.2818 39.2078 26.8618C39.5278 25.4218 39.6878 24.0418 39.6878 22.7218C39.6878 21.4418 39.5178 20.3418 39.1778 19.4218C38.8578 18.4818 38.3778 17.7018 37.7378 17.0818C37.1178 16.4618 36.3478 16.0118 35.4278 15.7318C34.5278 15.4318 33.5078 15.2818 32.3678 15.2818C30.9478 15.2818 29.6178 15.5318 28.3778 16.0318C27.1378 16.5118 25.9778 17.1918 24.8978 18.0718C23.8378 18.9318 22.8878 19.9318 22.0478 21.0718C21.2278 22.2118 20.5178 23.4418 19.9178 24.7618C19.3378 26.0818 18.8878 27.4318 18.5678 28.8118C18.2678 30.1918 18.1178 31.5518 18.1178 32.8918C18.1178 33.3318 18.1278 33.7718 18.1478 34.2118C18.1678 34.6318 18.1878 35.0218 18.2078 35.3818C18.2478 35.7418 18.2878 36.0418 18.3278 36.2818C18.3678 36.6018 18.2878 36.8618 18.0878 37.0618C17.9078 37.2618 17.6778 37.4018 17.3978 37.4818C17.1378 37.5618 16.8778 37.5618 16.6178 37.4818C16.3778 37.4018 16.2078 37.2518 16.1078 37.0318C15.9878 36.7318 15.8678 36.3718 15.7478 35.9518C15.6478 35.5118 15.5578 35.0318 15.4778 34.5118C15.4178 33.9918 15.3878 33.4518 15.3878 32.8918C15.3878 31.3318 15.5678 29.7518 15.9278 28.1518C16.3078 26.5518 16.8478 25.0018 17.5478 23.5018C18.2678 22.0018 19.1278 20.6018 20.1278 19.3018C21.1478 18.0018 22.3078 16.8618 23.6078 15.8818C24.9078 14.8818 26.3278 14.1118 27.8678 13.5718C29.4078 13.0118 31.0578 12.7318 32.8178 12.7318C34.2978 12.7318 35.6278 12.9618 36.8078 13.4218C38.0078 13.8818 39.0278 14.5418 39.8678 15.4018C40.7078 16.2418 41.3478 17.2818 41.7878 18.5218C42.2278 19.7618 42.4478 21.1618 42.4478 22.7218C42.4478 24.2818 42.2678 25.8818 41.9078 27.5218C41.5678 29.1618 41.0578 30.7718 40.3778 32.3518C39.6978 33.9118 38.8778 35.3818 37.9178 36.7618C36.9778 38.1418 35.8978 39.3518 34.6778 40.3918C33.4778 41.4318 32.1578 42.2518 30.7178 42.8518C29.2978 43.4518 27.7778 43.7518 26.1578 43.7518C25.3778 43.7518 24.5978 43.6118 23.8178 43.3318C23.0578 43.0718 22.3478 42.7018 21.6878 42.2218C21.0478 41.7218 20.5278 41.1218 20.1278 40.4218C19.7278 39.7018 19.5278 38.9118 19.5278 38.0518C19.5278 37.2318 19.6978 36.4818 20.0378 35.8018C20.3978 35.1218 20.9178 34.5818 21.5978 34.1818C22.2778 33.7818 23.1078 33.5818 24.0878 33.5818C24.9678 33.5818 25.7678 33.7818 26.4878 34.1818C27.2078 34.5618 27.8678 35.0718 28.4678 35.7118C29.0878 36.3518 29.6478 37.0618 30.1478 37.8418C30.6678 38.6218 31.1478 39.4018 31.5878 40.1818C32.0478 40.9418 32.4978 41.6518 32.9378 42.3118C33.3778 42.9518 33.8078 43.4618 34.2278 43.8418C34.6678 44.2418 35.1178 44.4418 35.5778 44.4418C36.0378 44.4418 36.4878 44.3018 36.9278 44.0218C37.3678 43.7618 37.8078 43.3518 38.2478 42.7918C38.7078 42.2318 39.1778 41.5318 39.6578 40.6918C39.8178 40.4118 40.0578 40.2718 40.3778 40.2718C40.6978 40.2518 41.0078 40.3718 41.3078 40.6318C41.5678 40.8318 41.7078 41.0418 41.7278 41.2618C41.7678 41.4818 41.7078 41.7318 41.5478 42.0118C41.2278 42.5718 40.8678 43.1418 40.4678 43.7218C40.0678 44.3018 39.6178 44.8318 39.1178 45.3118C38.6178 45.8118 38.0678 46.2118 37.4678 46.5118C36.8678 46.8118 36.2178 46.9618 35.5178 46.9618Z" fill="#1C2B22"/>
</svg>
